<svg width="46" height="57" fill="none" xmlns="http://www.w3.org/2000/svg"><path d="M19.2723 8.4035h5.4606V.0002h-22.33l28.0709 47.3609h11.889L19.2723 8.4035z" fill="#FFED00"/><path d="M24.7322 8.4035h.0007V.0002h-.0007v8.4033z" fill="#FAE920"/><path d="M38.418 22.901C42.8699 20.6652 46 16.3288 46 11.1795 46 4.133 41.1309 0 33.4098 0h-8.6776.0008v8.4035h-.0008v.0023l5.9647-.0043c3.617 0 5.6346 2.3036 4.7996 5.7591-.7021 2.9216-3.1611 5.1573-6.3018 5.5067l-3.2457.0009.0027.0046H14.0629l-.0008-.0014-5.3907.0014-6.2852 27.6875H24.993a24.1078 24.1078 0 0 0 5.1591-.5421l-4.8993-8.2659H14.6982l2.3864-11.0243h13.5231a4.0443 4.0443 0 0 1 1.55.7256c.9541.8199 1.3609 2.389 1.2278 3.9611l5.8406 9.854c2.9533-2.9077 4.6176-6.7819 4.6176-11.0375-.0001-3.7262-1.6-6.7074-5.4257-8.1302zM5.7764 52.183a1.5017 1.5017 0 0 1-.0679.4535 1.7962 1.7962 0 0 1-.1808.4008 1.9307 1.9307 0 0 1-.2576.3344 1.7534 1.7534 0 0 1-.3073.2554.9532.9532 0 0 1 .4068.4314c.0909.1902.1372.3978.1356.6076a2.0234 2.0234 0 0 1-.1673.8101 2.0371 2.0371 0 0 1-.4881.6869 2.4414 2.4414 0 0 1-.7775.4798 2.771 2.771 0 0 1-1.0259.1806H0l1.347-6.1551H4.14c.5121 0 .913.1379 1.2023.4139.2894.2759.4341.6428.4341 1.1007zm-3.5888 2.1309l-.235 1.1094h1.284a.5333.5333 0 0 0 .2074-.034.521.521 0 0 0 .1767-.1112.7532.7532 0 0 0 .2034-.33.681.681 0 0 0 .0226-.2113.5145.5145 0 0 0-.0497-.207.427.427 0 0 0-.1265-.1541.3358.3358 0 0 0-.208-.0617l-1.2749-.0001zm.4972-2.2453l-.244 1.1007h1.0304a.5296.5296 0 0 0 .2226-.0482.5155.5155 0 0 0 .1797-.1368.8685.8685 0 0 0 .2125-.3697.565.565 0 0 0-.0361-.3743c-.0543-.1144-.1658-.1716-.3345-.1716l-1.0306-.0001zm4.4565 3.9536l-.5424.8364H4.8724l.0452-.2201 4.1402-6.005h.8317l1.5639 6.005-.0453.2201H9.6996l-.226-.8453-2.3323.0089zm.8136-1.312h1.3108l-.3345-1.4529-.9763 1.4529zm6.0022-1.127l-.7052 3.2754h-1.6541l1.3469-6.19h.5153l2.6214 3.0993.678-3.0731h1.6543l-1.347 6.1813h-.4246l-2.685-3.2929zm5.6227 2.439l-.5424.8364h-1.7266l.0452-.2201 4.1402-6.005h.8316l1.5639 6.005-.0452.2201H22.138l-.226-.8453-2.3322.0089zm.8136-1.312h1.3107l-.3344-1.4529-.9763 1.4529zm6.0022-1.127l-.7052 3.2754h-1.6542l1.3469-6.19h.5152l2.6217 3.0993.6779-3.0731h1.6542l-1.3468 6.1813h-.4249l-2.6848-3.2929zm5.6225 2.439l-.5424.8364h-1.7265l.0451-.2201 4.1402-6.005h.8316l1.5639 6.005-.0451.2201h-1.7088l-.226-.8453-2.332.0089zm.8136-1.312h1.3108l-.3346-1.4529-.9762 1.4529zm5.1796.2553a.4071.4071 0 0 0 .0226.2774.4906.4906 0 0 0 .1853.1981.965.965 0 0 0 .2983.1187c.1185.0269.2399.0402.3616.0396a1.7955 1.7955 0 0 0 .3887-.0439 1.382 1.382 0 0 0 .3616-.1322.87.87 0 0 0 .2665-.2155.4526.4526 0 0 0 .1037-.2948.3768.3768 0 0 0-.0218-.1535.3863.3863 0 0 0-.0819-.1328.679.679 0 0 0-.2621-.1541 1.5406 1.5406 0 0 0-.3388-.0703 8.6203 8.6203 0 0 0-.3344-.0265 4.2116 4.2116 0 0 1-.7323-.1145 2.0981 2.0981 0 0 1-.6281-.2642 1.4011 1.4011 0 0 1-.443-.4445 1.2154 1.2154 0 0 1-.1673-.6559 2.0474 2.0474 0 0 1 .2533-1.039 2.2442 2.2442 0 0 1 .6688-.7309 2.9713 2.9713 0 0 1 .9447-.4315 4.1867 4.1867 0 0 1 1.0802-.1407 2.9337 2.9337 0 0 1 .8724.1276c.2584.0766.4971.2056.7006.3787.1939.169.3362.3868.4112.6296.0813.2523.0829.5458.0046.8803h-1.546a.4884.4884 0 0 0-.0407-.2772.4905.4905 0 0 0-.1716-.1937.8095.8095 0 0 0-.2622-.1102 1.3692 1.3692 0 0 0-.3119-.0351 1.2391 1.2391 0 0 0-.3479.0485 1.2067 1.2067 0 0 0-.3028.132.67.67 0 0 0-.217.2113.5213.5213 0 0 0-.0814.2861.3313.3313 0 0 0 .0551.2061.345.345 0 0 0 .1708.133c.2035.0735.4165.1195.6329.1365a8.499 8.499 0 0 1 .8361.1233c.2425.0458.4759.129.6914.2465.1925.1056.3542.2571.4701.4403.1229.2148.1824.4586.1719.7043a2.2333 2.2333 0 0 1-.2396 1.0655 2.0909 2.0909 0 0 1-.6555.7396 2.9324 2.9324 0 0 1-.9807.4315 4.9829 4.9829 0 0 1-1.2069.1409 3.525 3.525 0 0 1-.949-.1233 2.0284 2.0284 0 0 1-.7504-.3742 1.376 1.376 0 0 1-.4384-.6339c-.0875-.2554-.0921-.5562-.0138-.9024l1.5731-.0006z" fill="#fff"/></svg>